<svg xmlns="http://www.w3.org/2000/svg" viewBox="0 0 64 64" role="img" aria-label="ResuMentor favicon">
  <defs>
    <linearGradient id="bgf" x1="0" y1="0" x2="1" y2="1">
      <stop offset="0%" stop-color="#f5efe7"/>
      <stop offset="100%" stop-color="#e8d8c3"/>
    </linearGradient>
    <linearGradient id="acf" x1="0" y1="0" x2="1" y2="1">
      <stop offset="0%" stop-color="#d6b08c"/>
      <stop offset="100%" stop-color="#c8a27a"/>
    </linearGradient>
  </defs>

  <rect x="4" y="4" width="56" height="56" rx="16" fill="url(#bgf)" stroke="#c8a27a" stroke-width="1.5"/>

  <rect x="22" y="11" width="20" height="13" rx="5" fill="#3a332d"/>
  <circle cx="29" cy="17.5" r="2" fill="#f9f1e7"/>
  <circle cx="35" cy="17.5" r="2" fill="#f9f1e7"/>
  <rect x="30" y="8" width="4" height="3.5" rx="1.75" fill="url(#acf)"/>

  <path d="M19 24h17l7 7v17a4 4 0 0 1-4 4H19a4 4 0 0 1-4-4V28a4 4 0 0 1 4-4z" fill="#ffffff"/>
  <path d="M36 24v7h7z" fill="#efe3d4"/>
  <rect x="20.5" y="33.2" width="16" height="2.6" rx="1.3" fill="#6e5945"/>
  <rect x="20.5" y="38.2" width="13" height="2.3" rx="1.15" fill="#8f7560" opacity="0.82"/>

  <circle cx="46" cy="44" r="7.5" fill="url(#acf)"/>
  <rect x="45" y="40.8" width="2" height="4.2" rx="1" fill="#fff8ef"/>
  <rect x="44.25" y="45.4" width="3.5" height="1.1" rx="0.55" fill="#fff8ef"/>
</svg>
